<mxfile host="app.diagrams.net" modified="2024-01-18T10:12:53.543Z" agent="Mozilla/5.0 (Windows NT 10.0; Win64; x64) AppleWebKit/537.36 (KHTML, like Gecko) Chrome/118.0.0.0 YaBrowser/23.11.0.0 Safari/537.36" etag="uMBtwljQWMtCameuF8yE" version="22.1.21" type="github">
  <diagram name="Page-1" id="2YBvvXClWsGukQMizWep">
    <mxGraphModel dx="2236" dy="791" grid="1" gridSize="10" guides="1" tooltips="1" connect="1" arrows="1" fold="1" page="1" pageScale="1" pageWidth="850" pageHeight="1100" math="0" shadow="0">
      <root>
        <mxCell id="0" />
        <mxCell id="1" parent="0" />
        <mxCell id="r7zUqCM90J_sjImPs2p--1" value="Actor" style="shape=umlActor;verticalLabelPosition=bottom;verticalAlign=top;html=1;outlineConnect=0;" vertex="1" parent="1">
          <mxGeometry x="-110" y="210" width="30" height="60" as="geometry" />
        </mxCell>
        <mxCell id="r7zUqCM90J_sjImPs2p--4" value="Главная страница" style="rounded=0;whiteSpace=wrap;html=1;" vertex="1" parent="1">
          <mxGeometry x="90" y="60" width="120" height="100" as="geometry" />
        </mxCell>
        <mxCell id="r7zUqCM90J_sjImPs2p--5" value="Детский массаж,&amp;nbsp;&lt;br&gt;ОФП,&lt;br&gt;Актерское мастерство" style="rounded=0;whiteSpace=wrap;html=1;" vertex="1" parent="1">
          <mxGeometry x="420" y="60" width="120" height="100" as="geometry" />
        </mxCell>
        <mxCell id="r7zUqCM90J_sjImPs2p--8" value="" style="endArrow=classic;html=1;rounded=0;entryX=0.008;entryY=0.19;entryDx=0;entryDy=0;entryPerimeter=0;" edge="1" parent="1" target="r7zUqCM90J_sjImPs2p--5">
          <mxGeometry width="50" height="50" relative="1" as="geometry">
            <mxPoint x="210" y="80" as="sourcePoint" />
            <mxPoint x="260" y="30" as="targetPoint" />
          </mxGeometry>
        </mxCell>
        <mxCell id="r7zUqCM90J_sjImPs2p--9" value="перейти&amp;nbsp; на страницу, уйти с нее" style="text;html=1;align=center;verticalAlign=middle;resizable=0;points=[];autosize=1;strokeColor=none;fillColor=none;" vertex="1" parent="1">
          <mxGeometry x="200" y="48" width="210" height="30" as="geometry" />
        </mxCell>
        <mxCell id="r7zUqCM90J_sjImPs2p--11" value="" style="endArrow=classic;html=1;rounded=0;exitX=0.5;exitY=0.5;exitDx=0;exitDy=0;exitPerimeter=0;entryX=0;entryY=0.91;entryDx=0;entryDy=0;entryPerimeter=0;" edge="1" parent="1" source="r7zUqCM90J_sjImPs2p--1" target="r7zUqCM90J_sjImPs2p--4">
          <mxGeometry width="50" height="50" relative="1" as="geometry">
            <mxPoint x="400" y="430" as="sourcePoint" />
            <mxPoint x="450" y="380" as="targetPoint" />
          </mxGeometry>
        </mxCell>
        <mxCell id="r7zUqCM90J_sjImPs2p--12" value="Запись на занятие/массаж" style="rounded=0;whiteSpace=wrap;html=1;" vertex="1" parent="1">
          <mxGeometry x="80" y="260" width="120" height="60" as="geometry" />
        </mxCell>
        <mxCell id="r7zUqCM90J_sjImPs2p--13" value="связь с нами" style="rounded=0;whiteSpace=wrap;html=1;" vertex="1" parent="1">
          <mxGeometry x="80" y="400" width="120" height="60" as="geometry" />
        </mxCell>
        <mxCell id="r7zUqCM90J_sjImPs2p--15" value="" style="endArrow=classic;html=1;rounded=0;exitX=0.425;exitY=1.03;exitDx=0;exitDy=0;exitPerimeter=0;entryX=0.5;entryY=0;entryDx=0;entryDy=0;" edge="1" parent="1" source="r7zUqCM90J_sjImPs2p--4" target="r7zUqCM90J_sjImPs2p--12">
          <mxGeometry width="50" height="50" relative="1" as="geometry">
            <mxPoint x="400" y="430" as="sourcePoint" />
            <mxPoint x="450" y="380" as="targetPoint" />
          </mxGeometry>
        </mxCell>
        <mxCell id="r7zUqCM90J_sjImPs2p--16" value="" style="endArrow=classic;html=1;rounded=0;exitX=0.5;exitY=1;exitDx=0;exitDy=0;" edge="1" parent="1" source="r7zUqCM90J_sjImPs2p--12" target="r7zUqCM90J_sjImPs2p--13">
          <mxGeometry width="50" height="50" relative="1" as="geometry">
            <mxPoint x="400" y="430" as="sourcePoint" />
            <mxPoint x="450" y="380" as="targetPoint" />
          </mxGeometry>
        </mxCell>
      </root>
    </mxGraphModel>
  </diagram>
</mxfile>
